<svg xmlns="http://www.w3.org/2000/svg" viewBox="0 0 256 256" role="img" aria-label="Slides Studio"><title>Slides Studio</title><rect width="256" height="256" fill="#0b1218"/><g transform="translate(48.892 79.108) scale(0.978)"><rect width="161.803" height="100" rx="14.59" fill="#101a22"/><clipPath id="ss-slide"><rect width="161.803" height="100" rx="14.59"/></clipPath><g clip-path="url(#ss-slide)"><path d="M100 100L0 100A100 100 0 0 1 100 0Z" fill="#f2c14e"/><path d="M100 61.803L161.803 61.803A61.803 61.803 0 0 0 100 0Z" fill="#8ab4ff"/><path d="M123.607 61.803L161.803 61.803A38.197 38.197 0 0 1 123.607 100Z" fill="#f2c14e"/><path d="M123.607 76.393L100 76.393A23.607 23.607 0 0 0 123.607 100Z" fill="#8ab4ff"/><path d="M114.59 76.393L100 76.393A14.59 14.59 0 0 1 114.59 61.803Z" fill="#f2c14e"/></g></g></svg>